# xmcd
#
# Track frame offsets: 
#        150
#        21070
#        40003
#        57166
#        78376
#        111423
#        137166
#        159549
#        189765
#        215163
#
# Disc length: 3204 seconds
#
# Revision: 0
# Processed by: cddbd v1.5.2PL0 Copyright (c) Steve Scherf et al.
# Submitted via: ExactAudioCopy v0.99pb5
#
DISCID=830c820a
DTITLE=Various Artist - A Tribute to a Legend
DYEAR=1900
DGENRE=
TTITLE0=01. Les Paul and Friends - The Good Luck You're Having (feat. Jo
TTITLE0=e Bonamassa)
TTITLE1=02. Les Paul and Friends - The Walls Came Tumbling Down ((feat. 
TTITLE1=Hiram Bullock)
TTITLE2=03. Les Paul and Friends - I Don't Want To Be With Nobody But Yo
TTITLE2=u  (feat. Joan Osb
TTITLE3=04. Les Paul and Friends - All I Want Is You (feat. Johnny Rzezn
TTITLE3=ik)
TTITLE4=05. Les Paul and Friends - Slippin' Into Darkness (feat. Lisa Fi
TTITLE4=scher)
TTITLE5=06. Les Paul and Friends - 69 Freedom Special (feat. Les Paul and 
TTITLE5=Friends)
TTITLE6=07. Les Paul and Friends - Vocalise (feat. Slash)
TTITLE7=08. Les Paul and Friends - I Love You More Than You'll Ever Know
TTITLE7=(feat. Mick Huckn
TTITLE8=09. Les Paul and Friends - How Long (Jeff Golub)
TTITLE9=10. Les Paul and Friends - Great Hall Of Fame (feat. Richie Samb
TTITLE9=ora)
EXTD=
EXTT0=
EXTT1=
EXTT2=
EXTT3=
EXTT4=
EXTT5=
EXTT6=
EXTT7=
EXTT8=
EXTT9=
PLAYORDER=
